# xmcd CD database file
#
# Track frame offsets:
#	150
#	23667
#	44252
#	67645
#
# Disc length: 1173 seconds
#
# Revision: 0
# Processed by: cddbd v1.5.1PL0 Copyright (c) Steve Scherf et al.
# Submitted via: CDex 1.51
#
DISCID=23049304
DTITLE=大塚愛 - ネコに風船
DYEAR=2005
DGENRE=Japanese Pop
TTITLE0=ネコに風船
TTITLE1=夏空
TTITLE2=ネコに風船 (Instrumental)
TTITLE3=夏空 (Instrumental)
EXTD=YEAR: 2005
EXTT0=
EXTT1=
EXTT2=
EXTT3=
PLAYORDER=
